<svg width="1024" height="1024" viewBox="0 0 1024 1024" fill="none" xmlns="http://www.w3.org/2000/svg">
<path d="M505.081 863.448C731.772 863.448 915.542 679.679 915.542 452.988C915.542 226.296 731.772 42.5269 505.081 42.5269C278.39 42.5269 94.6201 226.296 94.6201 452.988C94.6201 679.679 278.39 863.448 505.081 863.448Z" fill="#881E0E"/>
<path d="M427.219 296.55C426.265 296.55 425.231 296.311 424.276 296.232C407.495 295.277 403.042 276.19 405.825 265.692C423.004 199.919 414.494 141.464 386.34 66.7842C380.534 51.5142 403.678 47.5376 413.778 51.5937C423.481 55.4908 432.468 69.4883 436.365 80.0659C459.668 143.134 466.189 209.384 446.943 280.246C444.398 289.79 436.763 296.789 427.219 296.55Z" fill="#EC6E40"/>
<path d="M478.597 357.55C476.847 357.55 475.097 357.232 473.348 356.676C462.929 353.494 457.044 342.519 460.225 332.18C482.335 259.011 498.48 139.396 447.262 49.5258C441.853 40.0616 455.612 33.8581 466.429 34.8921C491.242 37.1189 505.717 74.26 510.489 90.8025C532.917 168.027 525.6 271.259 497.843 343.553C494.662 352.063 487.186 357.789 478.597 357.55Z" fill="#EC6E40"/>
<path d="M531.564 415.21C518.044 411.313 515.499 393.498 518.601 383.08C580.158 176.776 518.203 50.0029 517.726 48.6508C513.908 38.4708 547.311 24.5529 563.774 65.8296C566.16 71.7944 621.116 209.781 559.162 399.861C556.219 408.609 545.721 419.346 531.564 415.21Z" fill="#EC6E40"/>
<path d="M181.309 722.758C175.583 715.998 168.425 705.261 177.491 699.217C192.523 689.116 244.139 672.733 285.415 616.743C291.857 607.994 302.753 603.938 312.217 609.347C321.682 614.675 325.897 627.321 319.614 636.149C269.509 706.772 208.509 725.86 206.043 727.291C203.021 729.041 187.035 729.518 181.309 722.758Z" fill="#EC6E40"/>
<path d="M214.474 752.105C210.338 741.766 236.743 737.232 236.743 737.232C248.434 732.779 296.391 723.792 334.646 663.586C340.451 654.44 352.063 650.861 361.448 656.27C370.912 661.678 374.173 673.687 368.764 683.072C343.076 728.086 292.892 761.808 258.534 769.999C240.162 774.374 218.53 762.205 214.474 752.105Z" fill="#EC6E40"/>
<path d="M278.735 811.037C266.566 804.595 262.988 792.825 270.702 790.28C316.273 775.566 366.06 737.55 390.238 701.761C396.282 692.774 408.53 690.388 417.517 696.512C426.504 702.557 428.81 714.804 422.766 723.791C394.373 766.579 365.424 788.212 318.182 808.731C309.195 812.628 290.108 817.082 278.735 811.037Z" fill="#EC6E40"/>
<path d="M336.952 828.614C366.776 814.934 416.483 786.621 445.273 738.346C450.841 729.041 462.929 725.939 472.235 731.506C481.54 737.073 484.641 749.162 479.074 758.467C455.851 797.437 423.561 828.216 374.332 845.554C350.393 854.064 327.09 833.227 336.952 828.614Z" fill="#EC6E40"/>
<path d="M153.791 665.973C87.5415 587.873 75.8504 485.914 92.8701 384.909C96.7672 361.686 105.277 347.211 113.707 347.291C124.603 347.45 135.101 384.83 131.92 405.11C117.604 496.332 144.009 585.805 201.112 655.395C204.532 659.61 199.681 673.846 187.512 679.175C175.344 684.424 161.744 675.357 153.791 665.973Z" fill="#EC6E40"/>
<path d="M204.294 621.992C174.31 593.838 149.497 505.717 149.417 463.804C149.417 452.908 149.497 437.241 160.392 437.241C160.392 437.241 184.729 440.979 188.785 463.725C194.591 496.492 212.724 571.728 242.946 609.824C249.706 618.333 224.733 641.159 204.294 621.992Z" fill="#EC6E40"/>
<path d="M531.326 878.639C496.73 880.389 443.603 873.152 426.186 849.292C419.744 840.544 431.276 832.273 441.774 835.056C505.081 852.155 548.902 862.097 629.786 822.808C646.169 814.855 664.302 823.206 656.19 834.658C644.817 850.803 593.519 875.856 531.326 878.639Z" fill="#D85D1B"/>
<path d="M466.428 807.3C460.305 798.313 478.517 783.281 489.334 785.031C506.433 787.735 518.283 790.757 530.213 791.234C542.46 791.711 557.492 787.258 562.105 787.258C573 787.258 599.087 797.994 592.406 806.584C571.728 833.147 485.755 835.533 466.428 807.3Z" fill="#D85D1B"/>
<path d="M690.786 357.471C680.845 358.664 671.46 352.063 669.313 342.121C667.006 331.544 673.767 321.045 684.344 318.739C731.188 308.559 792.268 273.645 827.898 217.575C836.408 204.134 862.892 229.346 848.656 250.66C805.868 315.001 749.798 344.825 692.695 357.153C692.059 357.232 691.423 357.391 690.786 357.471Z" fill="#EC6E40"/>
<path d="M677.187 428.651C666.609 429.924 656.906 422.527 655.395 411.87C653.884 401.133 661.28 391.112 672.097 389.601C749.162 378.547 833.386 319.773 861.699 260.92C866.391 251.137 898.92 280.007 875.697 312.217C834.261 369.559 752.98 417.755 677.743 428.492C677.505 428.651 677.346 428.651 677.187 428.651Z" fill="#EC6E40"/>
<path d="M684.265 491.163C677.982 491.879 671.779 492.435 665.814 492.674C654.997 493.151 645.772 484.721 645.295 473.825C644.818 462.929 653.248 453.704 664.144 453.385C742.959 450.045 857.564 397.077 893.114 331.146C898.284 321.602 931.21 348.643 903.215 384.114C882.218 410.757 849.133 432.548 811.276 451.556C770.238 472.234 724.11 486.47 684.265 491.163Z" fill="#EC6E40"/>
<path d="M746.538 544.926C740.971 545.562 735.801 545.88 731.188 545.721C720.292 545.483 711.703 536.416 712.021 525.6C712.26 514.784 721.247 506.115 732.143 506.433C768.488 507.228 866.63 469.053 908.304 403.599C914.19 394.453 935.902 428.651 912.44 455.374C861.699 513.193 794.495 539.279 746.538 544.926Z" fill="#EC6E40"/>
<path d="M594.872 466.747C592.486 466.747 590.1 466.349 587.714 465.395C577.613 461.498 573 450.204 576.5 439.945C616.981 321.204 631.138 181.229 580.238 52.3093C576.261 42.2089 615.072 40.8568 625.332 70.9992C673.687 213.678 659.133 329.158 613.164 454.181C610.301 462.054 602.745 466.747 594.872 466.747Z" fill="#EC6E40"/>
<path d="M743.277 240.083C733.176 227.437 694.524 196.897 679.572 191.648C669.313 187.99 665.734 152.678 676.629 152.678C712.418 152.598 761.489 187.99 776.123 221.87C786.939 246.922 763.955 265.93 743.277 240.083Z" fill="#D85D1B"/>
<path d="M793.222 208.27C757.99 161.188 729.677 130.25 664.461 107.345C649.43 102.017 635.194 83.5654 644.34 77.6801C661.28 66.7047 692.854 80.066 701.682 84.2812C736.199 100.744 768.17 118.4 795.052 149.656C810.242 167.312 828.057 204.135 820.82 212.167C809.844 224.336 797.119 213.44 793.222 208.27Z" fill="#D85D1B"/>
<path d="M803.084 599.087C797.358 589.861 829.25 576.579 832.113 542.858C833.067 532.042 865.993 519.317 866.709 530.133C869.413 572.285 854.541 587.634 837.998 599.644C819.945 612.607 806.742 605.131 803.084 599.087Z" fill="#D85D1B"/>
<path d="M868.618 627.877C853.905 624.537 859.79 608.71 866.63 600.28C892.716 568.308 895.102 551.209 892.398 516.374C891.046 499.196 905.123 483.846 911.804 492.356C920.473 503.49 926.994 536.019 920.791 562.741C906.157 626.287 873.231 628.911 868.618 627.877Z" fill="#D85D1B"/>
<path d="M719.497 258.614C721.883 261.715 724.19 265.056 725.144 268.794C726.178 272.611 725.701 276.985 723.156 279.928C721.406 281.916 719.02 283.109 716.634 284.223C712.101 286.37 707.568 288.517 702.637 289.392C697.706 290.267 692.377 289.71 688.321 286.847C683.231 283.189 681.163 276.667 679.811 270.623C677.505 260.761 676.073 250.74 675.357 240.639C675.198 238.254 675.119 235.629 676.232 233.482C682.992 220.757 714.884 252.808 719.497 258.614Z" fill="#D85D1B"/>
<path d="M743.276 783.361C696.512 775.169 649.588 756.877 603.699 736.04C593.121 730.95 582.941 725.621 572.761 720.213C555.9 729.757 537.767 737.471 518.839 743.197C569.023 771.272 610.697 786.462 641.237 795.529C693.489 811.117 714.883 808.254 719.337 807.618C736.516 804.993 753.933 785.508 743.276 783.361Z" fill="#EC6E40"/>
<path d="M156.097 291.619C150.928 282.075 143.213 258.375 143.213 258.375C129.534 256.705 118.32 274.361 123.33 304.344C126.273 321.602 204.134 517.806 434.297 688.4C464.519 710.828 492.753 728.723 518.76 743.277C518.76 743.277 537.052 755.366 562.025 742.482C583.18 731.586 572.682 720.213 572.682 720.213C386.976 622.389 259.806 482.096 156.097 291.619Z" fill="#F08D62"/>
<path d="M795.529 740.176C739.3 722.201 684.742 700.728 632.569 674.88C621.992 686.015 610.38 696.115 597.894 705.182C608.948 711.385 619.924 717.35 630.819 723.156C665.097 741.448 802.209 801.096 795.529 740.176Z" fill="#EC6E40"/>
<path d="M632.489 674.88C446.386 582.704 286.21 438.275 185.046 194.432C158.403 200.317 161.187 231.573 165.004 241.753C255.431 482.335 438.592 615.868 597.813 705.182C597.813 705.182 622.945 719.02 639.567 697.785C649.509 684.981 632.489 674.88 632.489 674.88Z" fill="#F08D62"/>
<path d="M835.532 688.877C776.6 672.096 721.643 648.794 670.664 621.276C664.142 633.921 656.507 645.931 647.918 657.065C688.638 677.743 731.664 695.24 776.838 708.363C833.942 724.826 846.269 690.707 835.532 688.877Z" fill="#EC6E40"/>
<path d="M233.958 144.804C227.436 131.045 199.918 151.962 204.69 173.674C234.356 281.678 371.388 524.725 647.918 657.065C647.918 657.065 670.028 666.768 678.458 648.317C686.888 629.786 670.743 621.276 670.743 621.276C380.216 466.747 269.906 245.411 233.958 144.804Z" fill="#F08D62"/>
<path d="M874.901 639.17C808.413 614.675 749.003 588.191 695.081 558.367C694.683 561.468 694.206 564.57 693.49 567.433C690.706 579.442 686.968 590.974 682.515 602.029C729.518 626.127 780.099 646.726 834.658 663.825C878.241 675.993 885.081 643.067 874.901 639.17Z" fill="#EC6E40"/>
<path d="M695.08 558.367C498.479 450.284 399.145 326.772 289.63 113.549C276.269 92.0752 243.741 111.719 256.386 134.545C352.937 343.951 456.01 473.905 682.515 602.109C682.515 602.109 699.852 608.869 706.533 588.668C710.748 575.943 706.772 564.729 695.08 558.367Z" fill="#F08D62"/>
<path d="M563.854 989.187C541.824 989.187 519.475 988.631 497.127 987.358C359.299 979.723 187.194 932.323 135.18 846.031C118.876 819.07 69.3285 736.914 170.413 570.694C227.118 477.483 363.355 278.337 326.055 88.0984C326.055 88.0984 320.886 69.8062 337.19 62.887C361.288 52.707 365.185 73.3852 365.185 73.3852C412.824 295.357 270.463 497.366 210.894 595.269C133.669 722.281 153.87 785.19 175.741 821.456C201.032 863.29 308.161 929.38 499.752 939.958C740.572 953.239 887.944 893.034 903.055 871.481C903.611 863.369 898.362 853.825 808.015 851.917C782.962 851.36 785.269 814.775 797.835 813.344C834.578 809.049 903.691 809.049 935.344 831.954C951.33 843.566 958.011 860.665 951.728 880.548C932.879 940.117 765.147 989.187 563.854 989.187Z" fill="#FF9E80"/>
</svg>
